<svg width="15" height="15" viewBox="0 0 15 15" fill="none" xmlns="http://www.w3.org/2000/svg">
<path d="M11.542 3.26685L11.1805 9.11482C11.0881 10.6089 11.042 11.356 10.6675 11.8931C10.4822 12.1587 10.2439 12.3828 9.9674 12.5512C9.40822 12.8918 8.65974 12.8918 7.16273 12.8918C5.66381 12.8918 4.91433 12.8918 4.35477 12.5505C4.07813 12.3818 3.83966 12.1573 3.65456 11.8913C3.28017 11.3534 3.235 10.6052 3.14468 9.10905L2.79199 3.26685" stroke="#B60000" stroke-linecap="round"/>
<path d="M1.91699 3.26701H12.417M9.53282 3.26701L9.13463 2.44552C8.87009 1.89983 8.73779 1.62698 8.50965 1.45681C8.45908 1.41907 8.40547 1.38549 8.34941 1.35642C8.09677 1.22534 7.79355 1.22534 7.18712 1.22534C6.56546 1.22534 6.25466 1.22534 5.99781 1.36191C5.94088 1.39218 5.88656 1.42712 5.83541 1.46636C5.60462 1.64342 5.47569 1.92625 5.21785 2.49191L4.86453 3.26701" stroke="#B60000" stroke-linecap="round"/>
<path d="M5.70862 9.68359V6.18359" stroke="#B60000" stroke-linecap="round"/>
<path d="M8.62537 9.68359V6.18359" stroke="#B60000" stroke-linecap="round"/>
</svg>
