<svg width="16" height="17" viewBox="0 0 16 17" fill="none" xmlns="http://www.w3.org/2000/svg">
<path d="M14.3623 7.79074C14.565 8.07494 14.6663 8.21708 14.6663 8.42741C14.6663 8.63774 14.565 8.77988 14.3623 9.06408C13.4516 10.3411 11.1258 13.0941 7.99967 13.0941C4.87353 13.0941 2.54774 10.3411 1.63703 9.06408C1.43435 8.77988 1.33301 8.63774 1.33301 8.42741C1.33301 8.21708 1.43435 8.07494 1.63703 7.79074C2.54774 6.5137 4.87353 3.76074 7.99967 3.76074C11.1258 3.76074 13.4516 6.5137 14.3623 7.79074Z" stroke="#777980"/>
<path d="M10 8.42773C10 7.32313 9.1046 6.42773 8 6.42773C6.8954 6.42773 6 7.32313 6 8.42773C6 9.53233 6.8954 10.4277 8 10.4277C9.1046 10.4277 10 9.53233 10 8.42773Z" stroke="#777980"/>
</svg>
