<svg width="16" height="17" viewBox="0 0 16 17" fill="none" xmlns="http://www.w3.org/2000/svg">
<path d="M11.3336 11.1367C11.3336 10.457 11.9305 9.90588 12.6669 9.90588C13.4033 9.90588 14.0003 10.457 14.0003 11.1367C14.0003 11.3817 13.9227 11.6099 13.789 11.8017C13.3905 12.3733 12.6669 12.9185 12.6669 13.5982V13.9059M12.6604 15.2392H12.6664" stroke="#B60000" stroke-linecap="round" stroke-linejoin="round"/>
<path d="M10.6669 15.2392H4.39418C3.36392 15.2392 2.54447 14.7379 1.8087 14.0369C0.302506 12.6019 2.77546 11.4552 3.71864 10.8936C5.41896 9.88114 7.47073 9.64708 9.3336 10.1913" stroke="#B60000" stroke-linecap="round" stroke-linejoin="round"/>
<path d="M11 4.90588C11 6.56274 9.65687 7.90588 8 7.90588C6.34315 7.90588 5 6.56274 5 4.90588C5 3.24903 6.34315 1.90588 8 1.90588C9.65687 1.90588 11 3.24903 11 4.90588Z" stroke="#B60000"/>
</svg>
