<svg width="20" height="21" viewBox="0 0 20 21" fill="none" xmlns="http://www.w3.org/2000/svg">
<g clip-path="url(#clip0_5230_2845)">
<path d="M2.08301 5.42741L6.66634 3.76074L11.2497 5.42741L9.16634 6.67741V7.92741C9.16634 7.92741 8.61076 7.51074 6.66634 7.51074C4.7219 7.51074 4.16634 7.92741 4.16634 7.92741V6.67741L2.08301 5.42741ZM2.08301 5.42741V8.76074" stroke="#B60000" stroke-linecap="round" stroke-linejoin="round"/>
<path d="M9.16602 7.51074V8.25148C9.16602 9.68333 8.04672 10.8441 6.66602 10.8441C5.28531 10.8441 4.16602 9.68333 4.16602 8.25148V7.51074" stroke="#B60000" stroke-linecap="round" stroke-linejoin="round"/>
<path d="M12.7647 9.6189C12.7647 9.6189 13.1687 9.32482 14.5828 9.32482C15.997 9.32482 16.401 9.6189 16.401 9.6189M12.7647 9.6189V8.76107L11.2495 7.92773L14.5828 6.67773L17.9162 7.92773L16.401 8.76107V9.6189M12.7647 9.6189V9.85957C12.7647 10.8637 13.5787 11.6777 14.5828 11.6777C15.587 11.6777 16.401 10.8637 16.401 9.85957V9.6189" stroke="#B60000" stroke-linecap="round" stroke-linejoin="round"/>
<path d="M3.65371 13.6994C2.86773 14.1382 0.806925 15.0341 2.06209 16.1552C2.67523 16.7028 3.35811 17.0944 4.21665 17.0944H9.11567C9.97425 17.0944 10.6571 16.7028 11.2703 16.1552C12.5254 15.0341 10.4646 14.1382 9.67858 13.6994C7.83551 12.6705 5.49683 12.6705 3.65371 13.6994Z" stroke="#B60000" stroke-linecap="round" stroke-linejoin="round"/>
<path d="M13.333 17.0941H16.4203C17.0643 17.0941 17.5764 16.7807 18.0363 16.3427C18.9777 15.4458 17.4321 14.7291 16.8426 14.3781C15.7798 13.7452 14.4973 13.599 13.333 13.9392" stroke="#B60000" stroke-linecap="round" stroke-linejoin="round"/>
</g>
<defs>
<clipPath id="clip0_5230_2845">
<rect width="20" height="20" fill="white" transform="translate(0 0.5)"/>
</clipPath>
</defs>
</svg>
