<svg width="16" height="17" viewBox="0 0 16 17" fill="none" xmlns="http://www.w3.org/2000/svg">
<path d="M1.3335 12.5719C1.3335 11.545 1.3335 11.0315 1.56465 10.6543C1.69399 10.4432 1.87145 10.2657 2.08252 10.1364C2.45972 9.90527 2.9732 9.90527 4.00016 9.90527C5.02712 9.90527 5.5406 9.90527 5.91781 10.1364C6.12887 10.2657 6.30633 10.4432 6.43567 10.6543C6.66683 11.0315 6.66683 11.545 6.66683 12.5719C6.66683 13.5989 6.66683 14.1124 6.43567 14.4896C6.30633 14.7007 6.12887 14.8781 5.91781 15.0075C5.5406 15.2386 5.02712 15.2386 4.00016 15.2386C2.9732 15.2386 2.45972 15.2386 2.08252 15.0075C1.87145 14.8781 1.69399 14.7007 1.56465 14.4896C1.3335 14.1124 1.3335 13.5989 1.3335 12.5719Z" stroke="#B60000"/>
<path d="M9.3335 12.5719C9.3335 11.545 9.3335 11.0315 9.56463 10.6543C9.69396 10.4432 9.87143 10.2657 10.0825 10.1364C10.4597 9.90527 10.9732 9.90527 12.0002 9.90527C13.0271 9.90527 13.5406 9.90527 13.9178 10.1364C14.1289 10.2657 14.3064 10.4432 14.4357 10.6543C14.6668 11.0315 14.6668 11.545 14.6668 12.5719C14.6668 13.5989 14.6668 14.1124 14.4357 14.4896C14.3064 14.7007 14.1289 14.8781 13.9178 15.0075C13.5406 15.2386 13.0271 15.2386 12.0002 15.2386C10.9732 15.2386 10.4597 15.2386 10.0825 15.0075C9.87143 14.8781 9.69396 14.7007 9.56463 14.4896C9.3335 14.1124 9.3335 13.5989 9.3335 12.5719Z" stroke="#B60000"/>
<path d="M1.3335 4.57194C1.3335 3.54498 1.3335 3.0315 1.56465 2.65429C1.69399 2.44323 1.87145 2.26577 2.08252 2.13643C2.45972 1.90527 2.9732 1.90527 4.00016 1.90527C5.02712 1.90527 5.5406 1.90527 5.91781 2.13643C6.12887 2.26577 6.30633 2.44323 6.43567 2.65429C6.66683 3.0315 6.66683 3.54498 6.66683 4.57194C6.66683 5.5989 6.66683 6.11238 6.43567 6.48959C6.30633 6.70065 6.12887 6.87811 5.91781 7.00745C5.5406 7.23861 5.02712 7.23861 4.00016 7.23861C2.9732 7.23861 2.45972 7.23861 2.08252 7.00745C1.87145 6.87811 1.69399 6.70065 1.56465 6.48959C1.3335 6.11238 1.3335 5.5989 1.3335 4.57194Z" stroke="#B60000"/>
<path d="M9.3335 4.57194C9.3335 3.54498 9.3335 3.0315 9.56463 2.65429C9.69396 2.44323 9.87143 2.26577 10.0825 2.13643C10.4597 1.90527 10.9732 1.90527 12.0002 1.90527C13.0271 1.90527 13.5406 1.90527 13.9178 2.13643C14.1289 2.26577 14.3064 2.44323 14.4357 2.65429C14.6668 3.0315 14.6668 3.54498 14.6668 4.57194C14.6668 5.5989 14.6668 6.11238 14.4357 6.48959C14.3064 6.70065 14.1289 6.87811 13.9178 7.00745C13.5406 7.23861 13.0271 7.23861 12.0002 7.23861C10.9732 7.23861 10.4597 7.23861 10.0825 7.00745C9.87143 6.87811 9.69396 6.70065 9.56463 6.48959C9.3335 6.11238 9.3335 5.5989 9.3335 4.57194Z" stroke="#B60000"/>
</svg>
