<svg width="16" height="17" viewBox="0 0 16 17" fill="none" xmlns="http://www.w3.org/2000/svg">
<path d="M1.33333 4.57227L5.94201 7.18358C7.64107 8.14627 8.35893 8.14627 10.058 7.18358L14.6667 4.57227" stroke="#B60000" stroke-linejoin="round"/>
<path d="M1.34401 9.55567C1.38759 11.5994 1.40938 12.6212 2.16347 13.3782C2.91755 14.1351 3.96705 14.1615 6.06605 14.2142C7.3597 14.2467 8.64063 14.2467 9.9343 14.2142C12.0333 14.1615 13.0828 14.1351 13.8369 13.3782C14.591 12.6212 14.6128 11.5994 14.6563 9.55567C14.6704 8.89854 14.6704 8.24534 14.6563 7.58821C14.6128 5.54451 14.591 4.52267 13.8369 3.76571C13.0828 3.00876 12.0333 2.98239 9.9343 2.92965C8.64063 2.89715 7.3597 2.89715 6.06604 2.92965C3.96705 2.98238 2.91755 3.00875 2.16346 3.76571C1.40938 4.52266 1.38759 5.54451 1.344 7.58821C1.32999 8.24534 1.33 8.89854 1.34401 9.55567Z" stroke="#B60000" stroke-linejoin="round"/>
</svg>
