<svg width="16" height="17" viewBox="0 0 16 17" fill="none" xmlns="http://www.w3.org/2000/svg">
<path d="M12.6668 3.90527L8.00016 1.90527L3.3335 3.90527L5.66683 4.90527V6.23861C5.66683 6.23861 6.44461 5.90527 8.00016 5.90527C9.5557 5.90527 10.3335 6.23861 10.3335 6.23861V4.90527L12.6668 3.90527ZM12.6668 3.90527V6.57194" stroke="#B60000" stroke-linecap="round" stroke-linejoin="round"/>
<path d="M10.3332 6.23926V6.90592C10.3332 8.19459 9.2885 9.23926 7.99984 9.23926C6.71117 9.23926 5.6665 8.19459 5.6665 6.90592V6.23926" stroke="#B60000" stroke-linecap="round" stroke-linejoin="round"/>
<path d="M5.18837 11.7078C4.45479 12.1642 2.53137 13.0959 3.70286 14.2618C4.27513 14.8313 4.91248 15.2386 5.71379 15.2386H10.2862C11.0875 15.2386 11.7249 14.8313 12.2971 14.2618C13.4686 13.0959 11.5452 12.1642 10.8116 11.7078C9.0914 10.6378 6.9086 10.6378 5.18837 11.7078Z" stroke="#B60000" stroke-linecap="round" stroke-linejoin="round"/>
</svg>
