<svg width="16" height="17" viewBox="0 0 16 17" fill="none" xmlns="http://www.w3.org/2000/svg">
<path d="M1.33301 4.42773L5.94169 7.03905C7.64074 8.00173 8.35861 8.00173 10.0577 7.03905L14.6663 4.42773" stroke="#777980" stroke-linejoin="round"/>
<path d="M1.34352 9.41114C1.3871 11.4549 1.40889 12.4767 2.16298 13.2337C2.91706 13.9906 3.96656 14.0169 6.06556 14.0697C7.35921 14.1022 8.64014 14.1022 9.93381 14.0697C12.0328 14.0169 13.0823 13.9906 13.8364 13.2337C14.5905 12.4767 14.6123 11.4549 14.6558 9.41114C14.6699 8.75401 14.6699 8.10081 14.6558 7.44368C14.6123 5.39998 14.5905 4.37814 13.8364 3.62118C13.0823 2.86423 12.0328 2.83786 9.93381 2.78512C8.64014 2.75262 7.35921 2.75262 6.06555 2.78512C3.96656 2.83785 2.91706 2.86422 2.16297 3.62118C1.40889 4.37813 1.3871 5.39998 1.34351 7.44368C1.3295 8.10081 1.32951 8.75401 1.34352 9.41114Z" stroke="#777980" stroke-linejoin="round"/>
</svg>
