<svg width="21" height="21" viewBox="0 0 21 21" fill="none" xmlns="http://www.w3.org/2000/svg">
<path fill-rule="evenodd" clip-rule="evenodd" d="M0.832031 9.66634C0.832031 5.06397 4.56299 1.33301 9.16537 1.33301C13.7677 1.33301 17.4987 5.06397 17.4987 9.66634C17.4987 11.6674 16.7934 13.5038 15.6178 14.9403L19.1654 18.4878L17.9869 19.6663L14.4393 16.1188C13.0028 17.2943 11.1664 17.9997 9.16537 17.9997C4.56299 17.9997 0.832031 14.2687 0.832031 9.66634ZM9.16537 2.99967C5.48347 2.99967 2.4987 5.98444 2.4987 9.66634C2.4987 13.3483 5.48347 16.333 9.16537 16.333C12.8473 16.333 15.832 13.3483 15.832 9.66634C15.832 5.98444 12.8473 2.99967 9.16537 2.99967Z" fill="#B0B0B0"/>
</svg>
