<svg width="16" height="17" viewBox="0 0 16 17" fill="none" xmlns="http://www.w3.org/2000/svg">
<path d="M10.3332 8.57259C10.3332 9.86126 9.2885 10.9059 7.99984 10.9059C6.71117 10.9059 5.6665 9.86126 5.6665 8.57259C5.6665 7.28392 6.71117 6.23926 7.99984 6.23926C9.2885 6.23926 10.3332 7.28392 10.3332 8.57259Z" stroke="#B60000"/>
<path d="M6.51483 2.36112L6.0001 3.90527L4.96021 4.56298L3.25874 4.14198C2.9735 4.07141 2.67568 4.19591 2.52554 4.4485L1.61608 5.97856C1.45219 6.25429 1.50788 6.60765 1.74864 6.81959L2.94206 7.87021V9.27367L1.74902 10.3243C1.50831 10.5362 1.45265 10.8895 1.61652 11.1652L2.52602 12.6953C2.67616 12.9479 2.97398 13.0725 3.25922 13.0019L4.9607 12.5809L5.94582 13.1333L6.41607 14.7573C6.49861 15.0424 6.75964 15.2386 7.05644 15.2386H8.94431C9.24104 15.2386 9.5021 15.0424 9.58464 14.7573L10.0549 13.1333L11.0395 12.5809L12.741 13.0019C13.0262 13.0725 13.324 12.9479 13.4742 12.6953L14.4008 11.1363C14.5569 10.8738 14.5146 10.5387 14.2982 10.3233L13.094 9.12441L13.0945 8.01947L14.2986 6.82059C14.5151 6.6051 14.5574 6.27008 14.4014 6.00753L13.4746 4.4485C13.3245 4.19591 13.0267 4.07141 12.7414 4.14198L11.04 4.56298L10.0001 3.90527L9.48537 2.36112C9.39464 2.08889 9.1399 1.90527 8.8529 1.90527H7.14731C6.86031 1.90527 6.60557 2.08889 6.51483 2.36112Z" stroke="#B60000" stroke-linecap="round" stroke-linejoin="round"/>
</svg>
